<?xml version="1.0" encoding="utf-8"?>
<!-- Svg Vector Icons : http://www.onlinewebfonts.com/icon -->
<!DOCTYPE svg PUBLIC "-//W3C//DTD SVG 1.1//EN" "http://www.w3.org/Graphics/SVG/1.1/DTD/svg11.dtd">
<svg version="1.1" xmlns="http://www.w3.org/2000/svg" xmlns:xlink="http://www.w3.org/1999/xlink" x="0px" y="0px" viewBox="0 0 1000 1000" enable-background="new 0 0 1000 1000" xml:space="preserve">
<metadata> Svg Vector Icons : http://www.onlinewebfonts.com/icon </metadata>
<g><path d="M911.4,499.2c1.2,108.9-39.9,211.8-116.2,289.6l56.1,55c90.9-93,140.1-215.6,138.7-345.4c-1.5-129.9-53.4-251.5-146.4-342.3l-54.8,56.1C866.6,288.4,910.2,390.3,911.4,499.2z"/><path d="M739.7,734.6c127.3-130.2,125-339.7-5.3-466.9l-54.9,56.1c99.4,97,101.1,256.8,4.1,356L739.7,734.6z"/><path d="M420.2,214.2L231,370.3v0.2c-0.7,0-1.3-0.1-2.1-0.1H10v260.5h222.9l187.4,154.8c50.1,27.4,91.1,0,91.1-61.2v-87.3V364.3v-88.9C511.4,214.1,470.4,186.7,420.2,214.2z"/></g>
</svg>