<?xml version="1.0" encoding="utf-8"?>
<!-- Svg Vector Icons : http://www.onlinewebfonts.com/icon -->
<!DOCTYPE svg PUBLIC "-//W3C//DTD SVG 1.1//EN" "http://www.w3.org/Graphics/SVG/1.1/DTD/svg11.dtd">
<svg version="1.1" xmlns="http://www.w3.org/2000/svg" xmlns:xlink="http://www.w3.org/1999/xlink" x="0px" y="0px" viewBox="0 0 1000 1000" enable-background="new 0 0 1000 1000" xml:space="preserve">
<metadata> Svg Vector Icons : http://www.onlinewebfonts.com/icon </metadata>
<g><g><path d="M745,255H612.9c45.9,30.6,89,85.2,102.4,122.5H744c62.2,0,122.5,61.3,122.5,122.5S804.3,622.5,744,622.5H560.3c-60.3,0-122.5-61.3-122.5-122.5c0-22,6.7-43.1,17.2-61.3H323.9c-4.8,20.1-7.7,40.2-7.7,61.3c0,122.5,121.5,245,244,245s62.2,0,184.7,0s245-122.5,245-245S867.5,255,745,255z M284.7,622.5H256c-62.2,0-122.5-61.3-122.5-122.5S195.7,377.5,256,377.5h183.8c60.3,0,122.5,61.3,122.5,122.5c0,22-6.7,43.1-17.2,61.3h131.1c4.8-20.1,7.7-40.2,7.7-61.3c0-122.5-121.5-245-244-245s-62.2,0-184.7,0S10,377.5,10,500s122.5,245,245,245h132.1C341.1,714.4,298.1,659.8,284.7,622.5z"/></g></g>
</svg>