<?xml version="1.0" encoding="utf-8"?>
<!-- Svg Vector Icons : http://www.onlinewebfonts.com/icon -->
<!DOCTYPE svg PUBLIC "-//W3C//DTD SVG 1.1//EN" "http://www.w3.org/Graphics/SVG/1.1/DTD/svg11.dtd">
<svg version="1.1" xmlns="http://www.w3.org/2000/svg" xmlns:xlink="http://www.w3.org/1999/xlink" x="0px" y="0px" viewBox="0 0 1000 1000" enable-background="new 0 0 1000 1000" xml:space="preserve">
<metadata> Svg Vector Icons : http://www.onlinewebfonts.com/icon </metadata>
<g><g transform="translate(0.000000,241.000000) scale(0.100000,-0.100000)"><path d="M4802.1,1945.2c-442.8-78.4-1649.7-297.8-2684.1-485.9c-1034.5-184.2-1912.2-344.8-1947.5-356.6c-66.6-19.6-70.5-231.2-70.5-3695.1v-3671.6L1130.5-6448c564.3-101.9,1802.5-325.3,2750.8-497.6c948.3-172.4,1735.9-313.5,1755.5-313.5c35.3,0,35.3,9318,0,9337.6C5617.1,2086.3,5244.9,2027.5,4802.1,1945.2z M3528.6-1032.8c239-66.6,470.2-321.3,525.1-576c58.8-274.3,54.9-427.1-11.7-650.5c-74.4-250.8-223.4-434.9-466.3-572.1c-180.3-101.9-239-117.5-525.1-117.5h-325.2v-501.6V-3952l-242.9,15.7c-137.1,7.8-258.6,15.7-278.2,19.6c-31.4,7.8-43.1,2805.6-11.8,2840.8C2263-1009.3,3317-974,3528.6-1032.8z"/><path d="M2725.4-1985v-454.5H2886c203.7,0,403.6,94,462.4,219.4c74.4,172.4,54.9,431-47,548.6c-78.4,90.1-133.2,109.7-333.1,125.4l-243,15.7V-1985z"/><path d="M5977.7,87.9v-215.5l1735.9-7.8l1732-11.7l11.7-2104.2l7.8-2108.1h133.2c74.4,0,168.5,31.3,215.5,66.6l86.2,70.5l-11.7,2206c-11.7,2135.5-15.7,2210-86.2,2264.9c-66.6,47-395.8,54.9-1951.4,54.9h-1873V87.9z"/><path d="M5977.7-640.9c0-231.2,3.9-239,90.1-215.5c47,15.7,152.8,39.2,235.1,50.9l145,23.5v-654.4v-650.5h670H7788l-27.4-145c-66.6-364.4-340.9-713.1-697.5-893.4c-160.7-78.4-258.6-98-505.5-98c-180.2,0-364.4,23.5-442.8,54.8l-137.1,58.8v-235.1v-231.2H7114h1136.3v-254.7v-254.7l-1124.6-7.8l-1128.5-11.7l-11.7-145l-11.8-148.9h1116.8h1120.7v-254.7v-254.7H7094.4H5977.7v-254.7v-254.7h1539.9c1445.9,0,1547.8,3.9,1606.6,70.5c58.8,66.6,66.6,293.9,66.6,2445.1c0,2245.2-3.9,2374.5-70.5,2433.3c-66.6,58.8-235.1,66.6-1606.6,66.6h-1536V-640.9z M7059.1-868.2c356.6-160.7,662.2-556.4,689.7-889.5l11.7-152.8l-576-11.7l-579.9-11.8v572.1v568.2h148.9C6831.9-793.8,6973-829,7059.1-868.2z"/></g></g>
</svg>